<svg width="600" height="800" viewBox="0 0 600 800" fill="none" xmlns="http://www.w3.org/2000/svg">
<g clip-path="url(#clip0_1_310)">
<rect width="600" height="800" fill="white"/>
<rect x="-50" y="-12" width="700" height="901" fill="url(#paint0_linear_1_310)"/>
<path d="M259.727 53.4545L269.273 86.2727H269.636L279.182 53.4545H293.455L278.091 100H260.818L245.455 53.4545H259.727ZM310.574 53.4545V100H297.938V53.4545H310.574ZM316.562 100V53.4545H336.653C340.108 53.4545 343.131 54.1364 345.722 55.5C348.313 56.8636 350.328 58.7803 351.767 61.25C353.206 63.7197 353.926 66.6061 353.926 69.9091C353.926 73.2424 353.184 76.1288 351.699 78.5682C350.229 81.0076 348.161 82.8864 345.494 84.2045C342.843 85.5227 339.744 86.1818 336.199 86.1818H324.199V76.3636H333.653C335.138 76.3636 336.403 76.1061 337.449 75.5909C338.509 75.0606 339.32 74.3106 339.881 73.3409C340.456 72.3712 340.744 71.2273 340.744 69.9091C340.744 68.5758 340.456 67.4394 339.881 66.5C339.32 65.5455 338.509 64.8182 337.449 64.3182C336.403 63.803 335.138 63.5455 333.653 63.5455H329.199V100H316.562Z" fill="url(#paint1_linear_1_310)"/>
<path d="M229.768 122H228.384L232.389 111.091H233.753L237.759 122H236.374L233.114 112.817H233.028L229.768 122ZM230.28 117.739H235.862V118.911H230.28V117.739ZM251.923 114.5H250.602C250.524 114.12 250.388 113.786 250.192 113.499C250.001 113.211 249.766 112.969 249.489 112.774C249.216 112.575 248.912 112.426 248.578 112.327C248.244 112.227 247.896 112.178 247.534 112.178C246.874 112.178 246.275 112.344 245.739 112.678C245.206 113.012 244.782 113.504 244.466 114.154C244.154 114.804 243.997 115.601 243.997 116.545C243.997 117.49 244.154 118.287 244.466 118.937C244.782 119.587 245.206 120.079 245.739 120.413C246.275 120.746 246.874 120.913 247.534 120.913C247.896 120.913 248.244 120.864 248.578 120.764C248.912 120.665 249.216 120.517 249.489 120.322C249.766 120.123 250.001 119.88 250.192 119.592C250.388 119.301 250.524 118.967 250.602 118.591H251.923C251.824 119.148 251.643 119.647 251.38 120.088C251.117 120.528 250.791 120.903 250.4 121.212C250.009 121.517 249.571 121.75 249.084 121.909C248.601 122.069 248.085 122.149 247.534 122.149C246.604 122.149 245.776 121.922 245.052 121.467C244.328 121.013 243.758 120.366 243.342 119.528C242.927 118.69 242.719 117.696 242.719 116.545C242.719 115.395 242.927 114.401 243.342 113.562C243.758 112.724 244.328 112.078 245.052 111.624C245.776 111.169 246.604 110.942 247.534 110.942C248.085 110.942 248.601 111.022 249.084 111.181C249.571 111.341 250.009 111.576 250.4 111.885C250.791 112.19 251.117 112.563 251.38 113.003C251.643 113.44 251.824 113.939 251.923 114.5ZM267.037 114.5H265.716C265.637 114.12 265.501 113.786 265.305 113.499C265.114 113.211 264.879 112.969 264.602 112.774C264.329 112.575 264.025 112.426 263.691 112.327C263.358 112.227 263.01 112.178 262.647 112.178C261.987 112.178 261.388 112.344 260.852 112.678C260.32 113.012 259.895 113.504 259.579 114.154C259.267 114.804 259.11 115.601 259.11 116.545C259.11 117.49 259.267 118.287 259.579 118.937C259.895 119.587 260.32 120.079 260.852 120.413C261.388 120.746 261.987 120.913 262.647 120.913C263.01 120.913 263.358 120.864 263.691 120.764C264.025 120.665 264.329 120.517 264.602 120.322C264.879 120.123 265.114 119.88 265.305 119.592C265.501 119.301 265.637 118.967 265.716 118.591H267.037C266.937 119.148 266.756 119.647 266.493 120.088C266.23 120.528 265.904 120.903 265.513 121.212C265.122 121.517 264.684 121.75 264.197 121.909C263.714 122.069 263.198 122.149 262.647 122.149C261.717 122.149 260.89 121.922 260.165 121.467C259.441 121.013 258.871 120.366 258.455 119.528C258.04 118.69 257.832 117.696 257.832 116.545C257.832 115.395 258.04 114.401 258.455 113.562C258.871 112.724 259.441 112.078 260.165 111.624C260.89 111.169 261.717 110.942 262.647 110.942C263.198 110.942 263.714 111.022 264.197 111.181C264.684 111.341 265.122 111.576 265.513 111.885C265.904 112.19 266.23 112.563 266.493 113.003C266.756 113.44 266.937 113.939 267.037 114.5ZM273.371 122V111.091H279.955V112.263H274.692V115.949H279.614V117.121H274.692V120.828H280.04V122H273.371ZM292.502 113.818C292.438 113.278 292.179 112.859 291.724 112.561C291.27 112.263 290.712 112.114 290.052 112.114C289.569 112.114 289.146 112.192 288.784 112.348C288.425 112.504 288.145 112.719 287.942 112.993C287.743 113.266 287.644 113.577 287.644 113.925C287.644 114.216 287.713 114.466 287.852 114.676C287.994 114.882 288.175 115.054 288.395 115.192C288.615 115.327 288.846 115.439 289.088 115.528C289.329 115.613 289.551 115.683 289.753 115.736L290.861 116.034C291.145 116.109 291.461 116.212 291.809 116.343C292.161 116.474 292.497 116.654 292.816 116.881C293.139 117.105 293.406 117.392 293.615 117.744C293.825 118.096 293.93 118.527 293.93 119.038C293.93 119.628 293.775 120.161 293.466 120.636C293.161 121.112 292.713 121.49 292.124 121.771C291.538 122.051 290.826 122.192 289.988 122.192C289.207 122.192 288.53 122.066 287.958 121.814C287.39 121.561 286.943 121.21 286.616 120.759C286.293 120.308 286.11 119.784 286.067 119.188H287.431C287.466 119.599 287.605 119.94 287.846 120.21C288.091 120.477 288.4 120.675 288.773 120.807C289.15 120.935 289.555 120.999 289.988 120.999C290.492 120.999 290.945 120.917 291.346 120.754C291.747 120.587 292.065 120.356 292.3 120.061C292.534 119.763 292.651 119.415 292.651 119.017C292.651 118.655 292.55 118.36 292.347 118.133C292.145 117.906 291.879 117.721 291.548 117.579C291.218 117.437 290.861 117.312 290.478 117.206L289.135 116.822C288.283 116.577 287.609 116.228 287.111 115.773C286.614 115.319 286.366 114.724 286.366 113.989C286.366 113.378 286.531 112.845 286.861 112.391C287.195 111.933 287.642 111.577 288.203 111.325C288.768 111.07 289.398 110.942 290.094 110.942C290.797 110.942 291.422 111.068 291.969 111.32C292.516 111.569 292.949 111.909 293.269 112.343C293.592 112.776 293.763 113.268 293.78 113.818H292.502ZM306.267 113.818C306.203 113.278 305.944 112.859 305.49 112.561C305.035 112.263 304.478 112.114 303.817 112.114C303.334 112.114 302.912 112.192 302.549 112.348C302.191 112.504 301.91 112.719 301.708 112.993C301.509 113.266 301.409 113.577 301.409 113.925C301.409 114.216 301.479 114.466 301.617 114.676C301.759 114.882 301.94 115.054 302.161 115.192C302.381 115.327 302.612 115.439 302.853 115.528C303.094 115.613 303.316 115.683 303.519 115.736L304.627 116.034C304.911 116.109 305.227 116.212 305.575 116.343C305.926 116.474 306.262 116.654 306.582 116.881C306.905 117.105 307.171 117.392 307.381 117.744C307.59 118.096 307.695 118.527 307.695 119.038C307.695 119.628 307.54 120.161 307.232 120.636C306.926 121.112 306.479 121.49 305.889 121.771C305.303 122.051 304.591 122.192 303.753 122.192C302.972 122.192 302.295 122.066 301.724 121.814C301.156 121.561 300.708 121.21 300.381 120.759C300.058 120.308 299.875 119.784 299.833 119.188H301.196C301.232 119.599 301.37 119.94 301.612 120.21C301.857 120.477 302.166 120.675 302.539 120.807C302.915 120.935 303.32 120.999 303.753 120.999C304.257 120.999 304.71 120.917 305.112 120.754C305.513 120.587 305.831 120.356 306.065 120.061C306.299 119.763 306.417 119.415 306.417 119.017C306.417 118.655 306.315 118.36 306.113 118.133C305.911 117.906 305.644 117.721 305.314 117.579C304.984 117.437 304.627 117.312 304.243 117.206L302.901 116.822C302.049 116.577 301.374 116.228 300.877 115.773C300.38 115.319 300.131 114.724 300.131 113.989C300.131 113.378 300.296 112.845 300.626 112.391C300.96 111.933 301.408 111.577 301.969 111.325C302.533 111.07 303.164 110.942 303.86 110.942C304.563 110.942 305.188 111.068 305.735 111.32C306.282 111.569 306.715 111.909 307.034 112.343C307.358 112.776 307.528 113.268 307.546 113.818H306.267ZM322.486 122V111.091H326.172C327.028 111.091 327.727 111.245 328.27 111.554C328.817 111.86 329.222 112.273 329.485 112.795C329.748 113.317 329.879 113.9 329.879 114.543C329.879 115.185 329.748 115.77 329.485 116.295C329.226 116.821 328.824 117.24 328.281 117.552C327.738 117.861 327.042 118.016 326.193 118.016H323.551V116.844H326.15C326.736 116.844 327.207 116.743 327.562 116.54C327.917 116.338 328.175 116.064 328.334 115.72C328.498 115.372 328.579 114.979 328.579 114.543C328.579 114.106 328.498 113.715 328.334 113.371C328.175 113.026 327.915 112.756 327.557 112.561C327.198 112.362 326.722 112.263 326.129 112.263H323.807V122H322.486ZM335.541 122H334.156L338.162 111.091H339.526L343.531 122H342.146L338.886 112.817H338.801L335.541 122ZM336.053 117.739H341.635V118.911H336.053V117.739ZM355.396 113.818C355.333 113.278 355.073 112.859 354.619 112.561C354.164 112.263 353.607 112.114 352.946 112.114C352.463 112.114 352.041 112.192 351.678 112.348C351.32 112.504 351.039 112.719 350.837 112.993C350.638 113.266 350.539 113.577 350.539 113.925C350.539 114.216 350.608 114.466 350.746 114.676C350.888 114.882 351.069 115.054 351.29 115.192C351.51 115.327 351.741 115.439 351.982 115.528C352.224 115.613 352.446 115.683 352.648 115.736L353.756 116.034C354.04 116.109 354.356 116.212 354.704 116.343C355.056 116.474 355.391 116.654 355.711 116.881C356.034 117.105 356.3 117.392 356.51 117.744C356.719 118.096 356.824 118.527 356.824 119.038C356.824 119.628 356.67 120.161 356.361 120.636C356.055 121.112 355.608 121.49 355.018 121.771C354.432 122.051 353.72 122.192 352.882 122.192C352.101 122.192 351.425 122.066 350.853 121.814C350.285 121.561 349.837 121.21 349.51 120.759C349.187 120.308 349.004 119.784 348.962 119.188H350.325C350.361 119.599 350.499 119.94 350.741 120.21C350.986 120.477 351.295 120.675 351.668 120.807C352.044 120.935 352.449 120.999 352.882 120.999C353.387 120.999 353.839 120.917 354.241 120.754C354.642 120.587 354.96 120.356 355.194 120.061C355.428 119.763 355.546 119.415 355.546 119.017C355.546 118.655 355.444 118.36 355.242 118.133C355.04 117.906 354.773 117.721 354.443 117.579C354.113 117.437 353.756 117.312 353.372 117.206L352.03 116.822C351.178 116.577 350.503 116.228 350.006 115.773C349.509 115.319 349.26 114.724 349.26 113.989C349.26 113.378 349.425 112.845 349.756 112.391C350.089 111.933 350.537 111.577 351.098 111.325C351.662 111.07 352.293 110.942 352.989 110.942C353.692 110.942 354.317 111.068 354.864 111.32C355.411 111.569 355.844 111.909 356.164 112.343C356.487 112.776 356.657 113.268 356.675 113.818H355.396ZM369.162 113.818C369.098 113.278 368.839 112.859 368.384 112.561C367.93 112.263 367.372 112.114 366.712 112.114C366.229 112.114 365.806 112.192 365.444 112.348C365.085 112.504 364.805 112.719 364.602 112.993C364.403 113.266 364.304 113.577 364.304 113.925C364.304 114.216 364.373 114.466 364.512 114.676C364.654 114.882 364.835 115.054 365.055 115.192C365.275 115.327 365.506 115.439 365.748 115.528C365.989 115.613 366.211 115.683 366.413 115.736L367.521 116.034C367.805 116.109 368.121 116.212 368.469 116.343C368.821 116.474 369.157 116.654 369.476 116.881C369.799 117.105 370.066 117.392 370.275 117.744C370.485 118.096 370.589 118.527 370.589 119.038C370.589 119.628 370.435 120.161 370.126 120.636C369.821 121.112 369.373 121.49 368.784 121.771C368.198 122.051 367.486 122.192 366.648 122.192C365.866 122.192 365.19 122.066 364.618 121.814C364.05 121.561 363.603 121.21 363.276 120.759C362.953 120.308 362.77 119.784 362.727 119.188H364.091C364.126 119.599 364.265 119.94 364.506 120.21C364.751 120.477 365.06 120.675 365.433 120.807C365.81 120.935 366.214 120.999 366.648 120.999C367.152 120.999 367.605 120.917 368.006 120.754C368.407 120.587 368.725 120.356 368.96 120.061C369.194 119.763 369.311 119.415 369.311 119.017C369.311 118.655 369.21 118.36 369.007 118.133C368.805 117.906 368.539 117.721 368.208 117.579C367.878 117.437 367.521 117.312 367.138 117.206L365.795 116.822C364.943 116.577 364.268 116.228 363.771 115.773C363.274 115.319 363.026 114.724 363.026 113.989C363.026 113.378 363.191 112.845 363.521 112.391C363.855 111.933 364.302 111.577 364.863 111.325C365.428 111.07 366.058 110.942 366.754 110.942C367.457 110.942 368.082 111.068 368.629 111.32C369.176 111.569 369.609 111.909 369.929 112.343C370.252 112.776 370.423 113.268 370.44 113.818H369.162Z" fill="url(#paint2_linear_1_310)"/>
<path d="M316.979 242.08L398.522 103.613C403.634 94.9324 416.251 95.1139 421.111 103.938L497.355 242.362C499.234 245.772 499.485 249.844 498.039 253.46L460.78 346.657C458.806 351.594 454.025 354.831 448.708 354.831H368.09C362.889 354.831 358.189 351.731 356.141 346.95L316.231 253.796C314.602 249.994 314.88 245.644 316.979 242.08Z" stroke="#FFD481" stroke-opacity="0.5" stroke-width="2"/>
<path d="M261.9 238.181L385.884 135.954C393.657 129.546 405.45 134.031 407 143.985L431.302 300.138C431.901 303.985 430.744 307.898 428.149 310.801L361.261 385.634C357.718 389.598 352.118 391.005 347.122 389.186L271.366 361.613C266.479 359.835 263.122 355.314 262.832 350.121L257.19 248.935C256.96 244.805 258.708 240.812 261.9 238.181Z" stroke="#FFD481" stroke-opacity="0.5" stroke-width="2"/>
<path d="M211.479 215.677L362.949 162.021C372.445 158.657 381.993 166.906 380.045 176.789L349.474 331.837C348.721 335.657 346.295 338.938 342.864 340.778L254.415 388.221C249.73 390.734 243.987 390.141 239.914 386.724L178.157 334.903C174.173 331.56 172.565 326.164 174.069 321.186L203.375 224.172C204.571 220.212 207.58 217.058 211.479 215.677Z" stroke="#FFD481" stroke-opacity="0.5" stroke-width="2"/>
<path d="M171.794 177.286L332.482 178.672C342.556 178.759 348.707 189.775 343.495 198.397L261.738 333.638C259.724 336.97 256.323 339.223 252.469 339.779L153.128 354.11C147.866 354.869 142.672 352.347 140.014 347.743L99.7047 277.926C97.1043 273.422 97.4386 267.801 100.555 263.637L161.274 182.497C163.752 179.185 167.658 177.251 171.794 177.286Z" stroke="#FFD481" stroke-opacity="0.5" stroke-width="2"/>
<path d="M147.634 127.637L298.157 183.897C307.593 187.424 309.605 199.88 301.759 206.199L178.678 305.322C175.646 307.764 171.679 308.718 167.868 307.923L69.6161 287.412C64.4117 286.326 60.3933 282.18 59.4701 276.944L45.4709 197.551C44.5678 192.429 46.8043 187.262 51.1567 184.414L135.966 128.935C139.427 126.671 143.759 126.189 147.634 127.637Z" stroke="#FFD481" stroke-opacity="0.5" stroke-width="2"/>
<path d="M141.912 72.719L264.115 177.068C271.776 183.61 269.407 196.003 259.873 199.257L110.312 250.306C106.628 251.564 102.573 251.104 99.2641 249.053L13.9527 196.175C9.43372 193.374 7.07571 188.104 7.99893 182.868L21.9981 103.475C22.9012 98.3531 26.7702 94.2624 31.8339 93.0755L130.503 69.9482C134.53 69.0043 138.766 70.033 141.912 72.719Z" stroke="#FFD481" stroke-opacity="0.5" stroke-width="2"/>
<path d="M155.317 19.1567L234.461 159.009C239.423 167.776 232.957 178.612 222.885 178.409L64.8849 175.226C60.9924 175.148 57.3399 173.329 54.9318 170.27L-7.1496 91.4032C-10.4381 87.2256 -10.8513 81.4666 -8.193 76.8623L32.116 7.04505C34.7165 2.5409 39.7513 0.0201557 44.9155 0.636728L145.544 12.6511C149.651 13.1415 153.28 15.557 155.317 19.1567Z" stroke="#FFD481" stroke-opacity="0.5" stroke-width="2"/>
<path d="M186.234 -26.5914L212.772 131.895C214.436 141.831 204.655 149.802 195.259 146.166L47.8761 89.1365C44.2451 87.7315 41.435 84.7731 40.2185 81.0747L8.85506 -14.2688C7.19374 -19.3192 8.77511 -24.8722 12.8479 -28.2896L74.6049 -80.1099C78.589 -83.453 84.1823 -84.0998 88.8242 -81.7541L179.275 -36.0472C182.967 -34.1817 185.551 -30.6708 186.234 -26.5914Z" stroke="#FFD481" stroke-opacity="0.5" stroke-width="2"/>
<path d="M230.933 -59.0056L201.666 99.0001C199.831 108.906 187.913 113.05 180.328 106.421L61.3383 2.42197C58.4069 -0.140167 56.7781 -3.88127 56.8998 -7.77267L60.0372 -108.093C60.2034 -113.407 63.5887 -118.084 68.5846 -119.903L144.341 -147.476C149.228 -149.255 154.705 -147.949 158.265 -144.158L227.629 -70.271C230.459 -67.2554 231.687 -63.0726 230.933 -59.0056Z" stroke="#FFD481" stroke-opacity="0.5" stroke-width="2"/>
<path d="M284.023 -74.1794L202.479 64.2873C197.367 72.968 184.751 72.7865 179.89 63.9625L103.646 -74.4612C101.768 -77.8715 101.517 -81.944 102.962 -85.5591L140.222 -178.757C142.196 -183.693 146.977 -186.931 152.293 -186.931H232.911C238.112 -186.931 242.813 -183.831 244.861 -179.05L284.77 -85.8957C286.399 -82.0937 286.122 -77.7435 284.023 -74.1794Z" stroke="#FFD481" stroke-opacity="0.5" stroke-width="2"/>
<path d="M339.1 -70.278L215.116 31.9486C207.343 38.3573 195.55 33.8717 194 23.9175L169.698 -132.235C169.099 -136.082 170.256 -139.995 172.851 -142.898L239.739 -217.731C243.282 -221.695 248.882 -223.102 253.878 -221.284L329.634 -193.711C334.521 -191.932 337.878 -187.411 338.168 -182.218L343.81 -81.032C344.04 -76.9022 342.292 -72.9093 339.1 -70.278Z" stroke="#FFD481" stroke-opacity="0.5" stroke-width="2"/>
<path d="M389.521 -47.7766L238.05 5.8799C228.555 9.24369 219.006 0.99501 220.955 -8.88877L251.526 -163.936C252.279 -167.756 254.705 -171.037 258.135 -172.877L346.584 -220.321C351.269 -222.834 357.013 -222.241 361.085 -218.823L422.842 -167.003C426.827 -163.66 428.435 -158.264 426.931 -153.285L397.625 -56.2712C396.429 -52.3117 393.42 -49.1577 389.521 -47.7766Z" stroke="#FFD481" stroke-opacity="0.5" stroke-width="2"/>
<path d="M429.206 -9.38324L268.518 -10.7687C258.444 -10.8555 252.293 -21.8724 257.505 -30.4936L339.262 -165.735C341.276 -169.067 344.677 -171.32 348.531 -171.876L447.872 -186.207C453.134 -186.966 458.328 -184.444 460.986 -179.84L501.295 -110.023C503.896 -105.519 503.561 -99.898 500.445 -95.7339L439.726 -14.5939C437.248 -11.2823 433.342 -9.34759 429.206 -9.38324Z" stroke="#FFD481" stroke-opacity="0.5" stroke-width="2"/>
<path d="M453.366 40.2663L302.843 -15.994C293.407 -19.521 291.395 -31.9773 299.241 -38.296L422.322 -137.419C425.354 -139.861 429.321 -140.815 433.132 -140.02L531.384 -119.509C536.588 -118.423 540.607 -114.277 541.53 -109.041L555.529 -29.6478C556.432 -24.5259 554.196 -19.3586 549.843 -16.5114L465.034 38.968C461.573 41.2324 457.241 41.7144 453.366 40.2663Z" stroke="#FFD481" stroke-opacity="0.5" stroke-width="2"/>
<path d="M459.088 95.1841L336.885 -9.16514C329.224 -15.7069 331.593 -28.1002 341.127 -31.3544L490.688 -82.4031C494.372 -83.6607 498.427 -83.2008 501.736 -81.1497L587.047 -28.2723C591.566 -25.4714 593.924 -20.201 593.001 -14.9652L579.002 64.4281C578.099 69.55 574.23 73.6407 569.166 74.8276L470.497 97.9549C466.47 98.8988 462.234 97.87 459.088 95.1841Z" stroke="#FFD481" stroke-opacity="0.5" stroke-width="2"/>
<path d="M445.683 148.746L366.539 8.89417C361.577 0.126678 368.043 -10.7088 378.115 -10.5059L536.115 -7.32333C540.008 -7.24492 543.66 -5.42605 546.068 -2.36683L608.15 76.4999C611.438 80.6775 611.851 86.4364 609.193 91.0407L568.884 160.858C566.284 165.362 561.249 167.883 556.084 167.266L455.456 155.252C451.349 154.762 447.72 152.346 445.683 148.746Z" stroke="#FFD481" stroke-opacity="0.5" stroke-width="2"/>
<path d="M414.766 194.492L388.227 36.0052C386.564 26.0694 396.345 18.0987 405.74 21.7342L553.124 78.7642C556.755 80.1692 559.565 83.1276 560.781 86.8259L592.145 182.169C593.806 187.22 592.225 192.773 588.152 196.19L526.395 248.011C522.411 251.354 516.817 252 512.176 249.655L421.724 203.948C418.033 202.082 415.449 198.571 414.766 194.492Z" stroke="#FFD481" stroke-opacity="0.5" stroke-width="2"/>
<path d="M370.067 226.908L399.334 68.9027C401.169 58.9971 413.087 54.8526 420.672 61.4821L539.662 165.481C542.593 168.043 544.222 171.784 544.1 175.676L540.963 275.996C540.797 281.31 537.411 285.987 532.415 287.806L456.659 315.379C451.772 317.158 446.295 315.852 442.735 312.06L373.371 238.174C370.541 235.158 369.313 230.975 370.067 226.908Z" stroke="#FFD481" stroke-opacity="0.5" stroke-width="2"/>
<rect x="32" y="152" width="533" height="633" rx="26" fill="white"/>
<path d="M264.886 185.307C265.993 185.001 267.132 184.76 268.221 184.375C272.571 182.849 275.877 180.116 278.166 176.249C279.784 173.513 281.858 171.176 284.712 169.581C289.175 167.085 294.931 167.611 298.884 170.811C299.295 171.141 299.716 171.461 300.106 171.818C300.356 172.045 300.513 171.997 300.766 171.811C301.805 171.035 302.794 170.165 303.93 169.55C308.676 166.978 314.328 167.659 318.481 171.203C320.21 172.678 321.592 174.41 322.752 176.335C325.623 181.092 329.876 184.035 335.489 185.138C335.657 185.169 335.825 185.21 336.104 185.269C335.436 185.417 334.868 185.523 334.311 185.668C329.19 187.001 325.316 189.896 322.684 194.32C321.074 197.028 319.024 199.348 316.203 200.937C311.711 203.47 305.937 202.951 301.955 199.723C301.555 199.4 301.145 199.091 300.766 198.743C300.506 198.506 300.338 198.554 300.073 198.75C299.009 199.541 297.995 200.428 296.831 201.047C292.11 203.559 286.515 202.868 282.394 199.359C280.687 197.905 279.305 196.207 278.166 194.306C275.288 189.497 271.017 186.517 265.35 185.41C265.186 185.382 265.025 185.341 264.886 185.31V185.307ZM281.63 185.31C283.262 186.163 284.408 187.393 285.186 188.964C286.011 190.624 287.129 192.096 288.482 193.395C291.218 196.028 294.51 197.63 298.324 198.245C299.077 198.365 299.845 198.513 300.602 198.493C301.448 198.468 302.298 198.31 303.13 198.142C308.944 196.956 313.179 193.794 315.835 188.679C316.542 187.321 317.564 186.252 318.924 185.479C319.028 185.42 319.121 185.348 319.267 185.252C317.599 184.389 316.46 183.155 315.682 181.587C314.857 179.927 313.739 178.456 312.386 177.153C309.651 174.52 306.358 172.918 302.544 172.303C301.791 172.183 301.023 172.035 300.266 172.056C299.42 172.08 298.57 172.238 297.738 172.406C291.925 173.595 287.69 176.754 285.033 181.869C284.576 182.753 283.983 183.54 283.201 184.179C282.719 184.575 282.19 184.908 281.63 185.31ZM296.185 171.052C296.117 170.983 296.095 170.945 296.06 170.925C295.935 170.852 295.813 170.78 295.681 170.722C292.182 169.147 288.718 169.202 285.383 171.093C282.905 172.496 281.098 174.561 279.691 176.954C277.534 180.632 274.46 183.337 270.46 185.07C270.339 185.125 270.224 185.183 270.035 185.272C270.221 185.365 270.321 185.42 270.421 185.461C274.427 187.184 277.516 189.875 279.666 193.56C280.719 195.365 282.051 196.949 283.69 198.29C286.554 200.631 289.821 201.421 293.489 200.596C294.431 200.387 295.328 200.046 296.245 199.507C295.721 199.345 295.281 199.225 294.849 199.077C289.689 197.341 285.922 194.093 283.497 189.383C282.476 187.397 280.859 186.066 278.652 185.406C278.537 185.372 278.427 185.324 278.248 185.259C280.719 184.585 282.455 183.189 283.565 181.048C286.151 176.05 290.246 172.774 295.799 171.172C295.921 171.138 296.035 171.096 296.178 171.052H296.185ZM304.676 170.99C304.733 171.052 304.751 171.083 304.773 171.09C305.183 171.22 305.601 171.334 306.008 171.471C311.168 173.21 314.932 176.462 317.353 181.171C318.374 183.158 319.995 184.482 322.202 185.142C322.313 185.173 322.416 185.224 322.584 185.293C320.135 185.963 318.399 187.342 317.296 189.473C314.707 194.485 310.604 197.774 305.037 199.379C304.923 199.41 304.808 199.455 304.626 199.517C304.783 199.61 304.862 199.668 304.951 199.709C308.508 201.421 312.047 201.387 315.478 199.452C317.956 198.053 319.76 195.98 321.167 193.587C323.331 189.896 326.419 187.184 330.444 185.461C330.551 185.417 330.647 185.351 330.808 185.262C330.615 185.173 330.501 185.118 330.383 185.066C326.427 183.351 323.359 180.69 321.231 177.05C320.327 175.51 319.224 174.125 317.903 172.894C315.185 170.361 311.993 169.209 308.208 169.783C306.969 169.966 305.805 170.364 304.683 170.99H304.676Z" fill="black"/>
<path d="M310.308 177.91C307.519 182.406 304.809 186.778 302.056 191.213C301.756 190.618 301.473 190.102 301.241 189.569C301.188 189.453 301.281 189.25 301.359 189.116C303.212 186.074 305.073 183.035 306.93 179.996C307.008 179.866 307.083 179.728 307.198 179.532C306.994 179.518 306.851 179.505 306.712 179.505C305.766 179.501 304.819 179.505 303.873 179.498C300.391 179.474 296.906 179.45 293.425 179.426C292.85 179.422 292.368 179.209 291.95 178.838C291.779 178.687 291.743 178.57 291.904 178.384C293.632 176.38 295.817 175.07 298.527 174.648C302.355 174.05 305.641 175.095 308.383 177.697C308.508 177.817 308.726 177.893 308.908 177.906C309.333 177.937 309.754 177.917 310.304 177.917L310.308 177.91ZM294.978 177.844H306.026C303.366 175.583 298.278 175.222 294.978 177.844Z" fill="black"/>
<path d="M288.999 180.415H305.261C304.85 180.927 304.475 181.408 304.083 181.869C304.022 181.938 303.861 181.941 303.743 181.941C302.087 181.958 300.43 181.965 298.769 181.979C296.63 181.993 294.495 182.006 292.356 182.023C292.249 182.023 292.142 182.037 291.97 182.048C292.088 182.264 292.181 182.446 292.284 182.622C294.445 186.21 296.602 189.802 298.769 193.388C299.137 193.993 299.233 194.611 299.041 195.282C298.976 195.498 298.869 195.557 298.623 195.515C294.048 194.749 290.674 191.676 289.681 187.327C289.303 185.667 289.367 184.007 289.849 182.371C289.924 182.113 289.913 181.896 289.76 181.666C289.499 181.281 289.274 180.875 288.999 180.415ZM296.77 193.319C294.909 190.229 293.074 187.183 291.213 184.096C290.003 186.843 293.577 192.769 296.77 193.319Z" fill="black"/>
<path d="M293.485 182.957C294.124 183.036 294.663 183.122 295.206 183.156C295.506 183.177 295.642 183.318 295.777 183.541C297.695 186.649 299.627 189.749 301.551 192.853C301.63 192.977 301.712 193.097 301.83 193.279C301.941 193.125 302.03 193.011 302.101 192.891C304.301 189.292 306.501 185.696 308.697 182.094C309.036 181.534 309.507 181.156 310.168 180.984C310.432 180.915 310.611 180.939 310.714 181.231C312.164 185.322 311.432 189.007 308.361 192.221C306.911 193.733 305.083 194.699 302.987 195.208C302.798 195.252 302.608 195.417 302.491 195.576C302.262 195.875 302.091 196.208 301.844 196.607C299.048 192.038 296.292 187.532 293.488 182.953L293.485 182.957ZM309.625 183.868C307.726 186.982 305.858 190.038 303.955 193.159C307.254 192.571 310.664 186.972 309.625 183.868Z" fill="black"/>
<path d="M247 226.948L252.84 207.29H256.422L262.262 226.948H260.851L259.159 221.251H250.103L248.411 226.948H247ZM250.47 219.954H258.792L255.407 208.56H253.855L250.47 219.954Z" fill="black"/>
<path d="M261.973 233.153L261.409 231.997C262.199 231.583 262.838 231.198 263.327 230.84C263.816 230.502 264.192 230.145 264.456 229.769C264.719 229.411 264.898 228.988 264.992 228.5C265.105 228.029 265.161 227.428 265.161 226.694V212.847H266.515V226.723C266.515 227.55 266.449 228.255 266.318 228.838C266.186 229.44 265.951 229.975 265.612 230.446C265.293 230.916 264.832 231.357 264.23 231.771C263.647 232.204 262.895 232.664 261.973 233.153ZM265.161 209.067V207.206H266.515V209.067H265.161Z" fill="black"/>
<path d="M270.836 226.948V212.847H272.19V213.918C272.529 213.73 272.961 213.533 273.488 213.326C274.014 213.119 274.579 212.95 275.18 212.818C275.782 212.668 276.365 212.593 276.929 212.593C277.889 212.593 278.669 212.715 279.271 212.959C279.892 213.185 280.371 213.57 280.71 214.116C281.048 214.642 281.283 215.357 281.415 216.259C281.547 217.143 281.612 218.243 281.612 219.559V226.948H280.23V219.644C280.23 218.158 280.145 216.992 279.976 216.146C279.826 215.3 279.506 214.708 279.017 214.37C278.547 214.012 277.813 213.834 276.817 213.834C276.252 213.834 275.669 213.899 275.068 214.031C274.485 214.163 273.939 214.332 273.431 214.539C272.942 214.727 272.529 214.915 272.19 215.103V226.948H270.836Z" fill="black"/>
<path d="M288.701 227.202C287.497 227.202 286.557 226.854 285.88 226.159C285.222 225.463 284.892 224.419 284.892 223.028C284.892 222.182 285.034 221.477 285.316 220.913C285.598 220.349 286.04 219.907 286.642 219.587C287.243 219.249 288.014 219.033 288.955 218.938L293.976 218.403V217.021C293.976 215.893 293.732 215.084 293.243 214.595C292.754 214.087 292.02 213.834 291.042 213.834C290.553 213.834 289.98 213.862 289.321 213.918C288.682 213.975 288.043 214.04 287.403 214.116C286.764 214.172 286.2 214.228 285.711 214.285L285.626 213.129C286.077 213.053 286.623 212.978 287.262 212.903C287.902 212.809 288.56 212.734 289.237 212.677C289.914 212.621 290.535 212.593 291.099 212.593C292.095 212.593 292.904 212.762 293.525 213.1C294.145 213.42 294.606 213.909 294.907 214.567C295.208 215.206 295.358 216.024 295.358 217.021V224.833C295.396 225.247 295.612 225.548 296.007 225.736C296.402 225.905 296.835 226.008 297.305 226.046L297.249 227.202C297.023 227.202 296.797 227.193 296.572 227.174C296.346 227.155 296.13 227.118 295.923 227.061C295.735 227.024 295.547 226.967 295.358 226.892C295.133 226.798 294.917 226.685 294.71 226.553C294.522 226.403 294.343 226.234 294.174 226.046C293.779 226.196 293.28 226.365 292.678 226.553C292.077 226.741 291.428 226.892 290.732 227.005C290.036 227.136 289.359 227.202 288.701 227.202ZM288.814 226.018C289.434 226.018 290.064 225.961 290.704 225.848C291.343 225.736 291.954 225.595 292.537 225.425C293.12 225.256 293.6 225.096 293.976 224.946V219.559L289.096 220.038C288.08 220.132 287.366 220.424 286.952 220.913C286.538 221.402 286.331 222.097 286.331 223C286.331 223.959 286.538 224.701 286.952 225.228C287.384 225.754 288.005 226.018 288.814 226.018Z" fill="black"/>
<path d="M299.423 226.948V207.685H303.316V223.648H310.932V226.948H299.423Z" fill="black"/>
<path d="M318.45 227.259C316.889 227.259 315.648 226.995 314.727 226.469C313.824 225.942 313.175 225.143 312.78 224.072C312.385 223 312.188 221.655 312.188 220.038C312.188 218.29 312.432 216.861 312.921 215.751C313.429 214.642 314.162 213.824 315.121 213.298C316.081 212.753 317.265 212.48 318.676 212.48C320.764 212.48 322.334 213.006 323.387 214.059C324.459 215.112 324.995 216.776 324.995 219.051L324.826 221.138H315.968C315.987 222.191 316.203 222.981 316.617 223.507C317.03 224.034 317.745 224.297 318.761 224.297C319.344 224.297 319.983 224.288 320.679 224.269C321.375 224.231 322.061 224.194 322.738 224.156C323.434 224.119 324.027 224.081 324.515 224.043L324.6 226.666C324.13 226.741 323.538 226.826 322.823 226.92C322.108 227.014 321.365 227.089 320.594 227.146C319.842 227.221 319.127 227.259 318.45 227.259ZM315.968 218.741H321.243C321.243 217.463 321.036 216.569 320.622 216.062C320.228 215.554 319.579 215.3 318.676 215.3C318.074 215.3 317.576 215.413 317.181 215.639C316.786 215.864 316.485 216.231 316.278 216.739C316.071 217.246 315.968 217.914 315.968 218.741Z" fill="black"/>
<path d="M327.49 226.948V212.79H331.242V213.693C331.543 213.505 331.909 213.326 332.342 213.157C332.775 212.969 333.226 212.809 333.696 212.677C334.185 212.546 334.655 212.48 335.107 212.48C336.085 212.48 336.893 212.611 337.533 212.875C338.191 213.119 338.708 213.523 339.084 214.087C339.46 214.652 339.733 215.394 339.902 216.316C340.072 217.218 340.156 218.318 340.156 219.615V226.948H336.376V219.813C336.376 218.835 336.32 218.055 336.207 217.472C336.094 216.87 335.878 216.438 335.558 216.175C335.238 215.911 334.768 215.78 334.148 215.78C333.809 215.78 333.452 215.817 333.076 215.893C332.718 215.949 332.37 216.034 332.032 216.146C331.712 216.259 331.449 216.372 331.242 216.485V226.948H327.49Z" fill="black"/>
<path d="M348.189 227.259C347.568 227.259 346.9 227.221 346.186 227.146C345.49 227.089 344.832 227.014 344.211 226.92C343.609 226.826 343.092 226.732 342.659 226.638L342.772 223.846C343.261 223.902 343.807 223.968 344.409 224.043C345.029 224.119 345.631 224.184 346.214 224.241C346.816 224.278 347.305 224.297 347.681 224.297C348.245 224.297 348.706 224.25 349.063 224.156C349.439 224.062 349.721 223.912 349.91 223.705C350.098 223.479 350.192 223.16 350.192 222.746C350.192 222.426 350.107 222.182 349.938 222.013C349.787 221.843 349.486 221.702 349.035 221.59C348.602 221.458 347.963 221.326 347.117 221.195C346.064 221.044 345.189 220.828 344.493 220.546C343.816 220.264 343.318 219.85 342.998 219.305C342.678 218.741 342.518 217.98 342.518 217.021C342.518 215.855 342.772 214.943 343.28 214.285C343.788 213.627 344.465 213.166 345.311 212.903C346.158 212.621 347.079 212.48 348.076 212.48C348.734 212.48 349.411 212.517 350.107 212.593C350.803 212.649 351.461 212.724 352.082 212.818C352.702 212.912 353.22 213.006 353.633 213.1L353.52 215.949C353.05 215.874 352.505 215.808 351.884 215.751C351.264 215.676 350.643 215.62 350.022 215.582C349.421 215.545 348.913 215.526 348.499 215.526C348.066 215.526 347.681 215.573 347.342 215.667C347.004 215.742 346.741 215.874 346.552 216.062C346.383 216.25 346.299 216.532 346.299 216.908C346.299 217.171 346.374 217.387 346.524 217.557C346.675 217.726 346.957 217.876 347.371 218.008C347.803 218.121 348.424 218.233 349.232 218.346C350.398 218.515 351.329 218.75 352.025 219.051C352.721 219.352 353.22 219.785 353.52 220.349C353.84 220.913 354 221.674 354 222.633C354 223.761 353.774 224.664 353.323 225.341C352.872 226.018 352.213 226.506 351.348 226.807C350.483 227.108 349.43 227.259 348.189 227.259Z" fill="black"/>
<g opacity="0.1">
<path d="M372.18 506.974C368.711 508.96 365.416 511.141 362.506 513.603C359.496 516.158 356.581 519.144 355.864 522.643L355.864 522.644C355.553 524.141 355.753 525.72 356.636 527.176C357.721 528.964 359.462 530.349 361.508 531.161C363.682 532.024 366.178 532.238 368.508 531.658C372.682 530.609 374.485 527.009 375.308 523.568C376.248 519.619 376.151 515.404 375.693 511.252L375.693 511.251C375.53 509.731 375.314 508.224 375.025 506.721C375.025 506.721 375.025 506.72 375.025 506.72L375.019 506.699L375.001 506.631C374.997 506.616 374.993 506.6 374.988 506.584C374.976 506.536 374.96 506.48 374.944 506.418C374.898 506.249 374.842 506.033 374.789 505.819C374.769 505.738 374.75 505.655 374.731 505.574C373.866 506.021 373.019 506.493 372.18 506.974ZM372.18 506.974L371.929 506.569L372.18 506.974Z" fill="url(#paint3_linear_1_310)" stroke="url(#paint4_linear_1_310)"/>
<path d="M313.302 511.489L313.302 511.487C313.83 507.965 316.579 504.864 319.449 502.188C322.222 499.609 325.397 497.295 328.755 495.168C329.569 494.653 330.391 494.145 331.233 493.663C331.255 493.744 331.28 493.827 331.305 493.909C331.368 494.121 331.437 494.334 331.491 494.501C331.511 494.562 331.529 494.618 331.545 494.665C331.55 494.682 331.555 494.697 331.56 494.711L331.582 494.779L331.589 494.8C331.589 494.8 331.589 494.801 331.589 494.801C331.958 496.29 332.255 497.787 332.499 499.298L332.499 499.299C333.18 503.427 333.503 507.633 332.777 511.615L313.302 511.489ZM313.302 511.489C313.072 512.994 313.356 514.563 314.317 515.982M313.302 511.489L314.317 515.982M314.317 515.982C315.496 517.723 317.311 519.036 319.4 519.763M314.317 515.982L319.4 519.763M319.4 519.763C321.619 520.536 324.125 520.648 326.421 519.973M319.4 519.763L326.421 519.973M326.421 519.973C330.533 518.753 332.14 515.085 332.777 511.616L326.421 519.973Z" fill="url(#paint5_linear_1_310)" stroke="url(#paint6_linear_1_310)"/>
<path d="M329.575 488.627L329.575 488.628C329.492 489.171 329.594 489.736 329.942 490.251C330.382 490.9 331.063 491.394 331.851 491.669C332.69 491.961 333.63 492 334.482 491.75C335.949 491.315 336.562 490.002 336.814 488.627C337.099 487.068 336.974 485.409 336.702 483.757L336.701 483.756C336.604 483.156 336.487 482.563 336.341 481.973C336.339 481.969 336.337 481.961 336.332 481.947L336.306 481.865C336.088 481.996 335.873 482.13 335.657 482.266C334.316 483.116 333.055 484.036 331.956 485.057C330.802 486.133 329.771 487.317 329.575 488.627Z" fill="url(#paint7_linear_1_310)" stroke="url(#paint8_linear_1_310)"/>
<path d="M336.972 477.791L336.972 477.792C336.945 477.969 336.977 478.153 337.093 478.325C337.253 478.561 337.503 478.744 337.798 478.847C338.114 478.957 338.46 478.969 338.765 478.879C339.228 478.741 339.464 478.322 339.57 477.742C339.687 477.102 339.637 476.409 339.52 475.696L339.52 475.695C339.495 475.544 339.468 475.395 339.437 475.247C338.885 475.6 338.371 475.979 337.925 476.393C337.422 476.863 337.043 477.32 336.972 477.791Z" fill="url(#paint9_linear_1_310)" stroke="url(#paint10_linear_1_310)"/>
<path d="M262.101 477.791L262.101 477.792C262.128 477.969 262.096 478.153 261.979 478.325C261.82 478.561 261.569 478.744 261.274 478.847C260.959 478.957 260.613 478.969 260.308 478.879C259.845 478.741 259.609 478.322 259.502 477.742C259.386 477.102 259.435 476.409 259.553 475.696L259.553 475.695C259.577 475.544 259.605 475.395 259.636 475.247C260.188 475.6 260.702 475.979 261.148 476.393C261.651 476.863 262.03 477.32 262.101 477.791Z" fill="url(#paint11_linear_1_310)" stroke="url(#paint12_linear_1_310)"/>
<path d="M369.695 469.201C369.832 468.961 369.738 468.677 369.485 468.566C369.232 468.455 368.916 468.56 368.779 468.799L369.695 469.201ZM368.779 468.799L354.284 494.122L355.2 494.524L369.695 469.201L368.779 468.799Z" fill="url(#paint13_linear_1_310)"/>
<path d="M401.109 536.388L401.109 536.389C400.107 537.651 399.544 539.168 399.657 540.81C399.798 542.824 400.724 544.703 402.189 546.171C403.746 547.731 405.903 548.826 408.292 549.141C412.603 549.701 415.975 547.057 418.362 544.213C421.093 540.951 423.002 537.073 424.551 533.127L424.552 533.126C425.123 531.683 425.64 530.232 426.089 528.759C426.089 528.758 426.089 528.757 426.09 528.757L426.095 528.735L426.11 528.667C426.114 528.652 426.117 528.636 426.121 528.619C426.132 528.571 426.144 528.514 426.159 528.452C426.197 528.282 426.248 528.065 426.301 527.851C426.317 527.789 426.333 527.726 426.35 527.663C425.371 527.756 424.397 527.876 423.427 528.007C419.328 528.558 415.293 529.35 411.475 530.538C407.527 531.772 403.436 533.441 401.109 536.388Z" fill="url(#paint14_linear_1_310)" stroke="url(#paint15_linear_1_310)"/>
<path d="M431.834 578.837L431.833 578.837C430.192 579.424 428.77 580.434 427.845 581.863C426.712 583.615 426.324 585.618 426.636 587.527C426.967 589.554 428.082 591.488 429.886 592.889C433.166 595.422 437.671 594.808 441.455 593.556C445.785 592.119 449.807 589.773 453.563 587.202L453.564 587.201C454.942 586.263 456.28 585.292 457.575 584.269L457.578 584.267L457.595 584.251L457.651 584.201C457.663 584.19 457.676 584.179 457.69 584.166C457.728 584.131 457.775 584.09 457.826 584.044C457.964 583.92 458.141 583.762 458.319 583.609C458.353 583.579 458.388 583.549 458.423 583.52C457.565 583.141 456.695 582.787 455.822 582.443C452.04 580.952 448.159 579.691 444.213 578.867C440.134 578.021 435.643 577.465 431.834 578.837Z" fill="url(#paint16_linear_1_310)" stroke="url(#paint17_linear_1_310)"/>
<path d="M373.348 500.478L373.347 500.48C373.235 501.019 373.307 501.588 373.627 502.117C374.031 502.783 374.684 503.304 375.455 503.61C376.276 503.936 377.212 504.014 378.076 503.799C379.566 503.424 380.25 502.136 380.576 500.771C380.944 499.225 380.909 497.562 380.725 495.9L380.725 495.899C380.661 495.296 380.575 494.699 380.461 494.104C380.46 494.099 380.458 494.091 380.454 494.077L380.433 493.999C380.21 494.119 379.989 494.244 379.768 494.37C378.382 495.164 377.073 496.031 375.92 497.006C374.71 498.034 373.615 499.176 373.348 500.478Z" fill="url(#paint18_linear_1_310)" stroke="url(#paint19_linear_1_310)"/>
<path d="M381.319 489.96L381.319 489.958C381.415 489.489 381.821 489.046 382.348 488.598C382.815 488.203 383.347 487.847 383.916 487.517C383.939 487.665 383.958 487.814 383.974 487.964L383.974 487.965C384.053 488.682 384.066 489.377 383.915 490.012C383.776 490.589 383.517 491 383.045 491.119C382.737 491.196 382.393 491.169 382.085 491.047C381.797 490.933 381.558 490.74 381.412 490.499L381.319 489.96ZM381.319 489.96C381.282 490.137 381.305 490.322 381.411 490.499L381.319 489.96Z" fill="url(#paint20_linear_1_310)" stroke="url(#paint21_linear_1_310)"/>
<path d="M440.878 516.495L440.879 516.494C441.212 516.082 441.819 515.826 442.513 515.617C443.111 515.438 443.745 515.315 444.397 515.229C444.352 515.352 444.304 515.474 444.253 515.597L444.253 515.598C443.976 516.277 443.647 516.917 443.195 517.444C442.78 517.926 442.318 518.221 441.818 518.152C441.507 518.107 441.223 517.96 441.018 517.749C440.825 517.552 440.706 517.301 440.691 517.034L440.878 516.495ZM440.878 516.495C440.748 516.654 440.68 516.839 440.691 517.034L440.878 516.495Z" fill="url(#paint22_linear_1_310)" stroke="url(#paint23_linear_1_310)"/>
<path d="M476.537 579.668L476.538 579.668C477.103 579.484 477.79 579.578 478.497 579.748C479.086 579.89 479.667 580.092 480.24 580.33C480.143 580.394 480.045 580.458 479.946 580.521L479.945 580.522C479.278 580.947 478.588 581.317 477.865 581.531C477.201 581.728 476.598 581.748 476.217 581.433C475.992 581.245 475.863 580.997 475.832 580.743C475.803 580.506 475.86 580.254 476.016 580.03L476.537 579.668ZM476.537 579.668C476.312 579.741 476.132 579.866 476.016 580.03L476.537 579.668Z" fill="url(#paint24_linear_1_310)" stroke="url(#paint25_linear_1_310)"/>
<path d="M428.129 522.191L428.128 522.191C427.742 522.645 427.518 523.19 427.536 523.784C427.56 524.532 427.876 525.239 428.399 525.799C428.955 526.395 429.739 526.823 430.616 526.966C432.157 527.212 433.454 526.303 434.449 525.196C435.572 523.946 436.387 522.435 437.067 520.875L437.067 520.874C437.316 520.307 437.543 519.738 437.744 519.16C437.745 519.155 437.747 519.146 437.751 519.133L437.756 519.115C437.516 519.135 437.277 519.159 437.037 519.184C435.391 519.356 433.774 519.625 432.241 520.052C430.637 520.501 429.049 521.105 428.129 522.191Z" fill="url(#paint26_linear_1_310)" stroke="url(#paint27_linear_1_310)"/>
<path d="M462.299 580.102L462.3 580.102C463.718 579.516 465.463 579.644 467.119 579.911C468.704 580.168 470.277 580.601 471.822 581.129L462.299 580.102ZM462.299 580.102C461.701 580.348 461.206 580.742 460.903 581.271C460.522 581.936 460.424 582.677 460.578 583.369C460.742 584.104 461.191 584.795 461.885 585.281C463.122 586.143 464.783 585.873 466.268 585.305C467.94 584.663 469.479 583.665 470.921 582.57L470.922 582.57M462.299 580.102L470.922 582.57M470.922 582.57C471.444 582.175 471.949 581.769 472.436 581.345M470.922 582.57L472.436 581.345M472.436 581.345C472.233 581.271 472.028 581.2 471.822 581.129L472.436 581.345Z" fill="url(#paint28_linear_1_310)" stroke="url(#paint29_linear_1_310)"/>
<path d="M375.24 561.817L375.239 561.818C371.705 565.114 369.305 569.332 368.826 574.177C368.248 580.06 370.009 585.84 373.528 590.631C377.263 595.717 382.964 599.696 389.736 601.507C402.103 604.783 413.165 598.273 421.231 591.141C430.517 582.911 437.749 572.66 443.968 562.147L443.969 562.146C446.263 558.293 448.41 554.394 450.377 550.403C450.401 550.349 450.457 550.21 450.539 550.008C450.593 549.876 450.657 549.718 450.73 549.538C450.918 549.078 451.159 548.496 451.407 547.924C451.654 547.355 451.913 546.787 452.136 546.36C452.142 546.347 452.149 546.333 452.156 546.32C448.887 546.174 445.62 546.152 442.375 546.168C430.6 546.228 418.866 546.985 407.54 548.943C395.893 550.971 383.375 554.197 375.24 561.817Z" fill="url(#paint30_linear_1_310)" stroke="url(#paint31_linear_1_310)"/>
<path d="M390.191 589.393L390.19 589.393C385.228 590.686 380.722 593.277 377.521 597.251C373.637 602.076 371.837 607.835 372.118 613.509C372.417 619.533 375.044 625.473 379.85 630.019C388.657 638.306 401.983 637.555 413.064 634.946C425.831 631.926 437.983 626.254 449.409 619.911L449.41 619.911C453.611 617.593 457.711 615.17 461.708 612.588C461.76 612.552 461.889 612.456 462.077 612.317C462.199 612.227 462.346 612.119 462.512 611.996C462.939 611.682 463.482 611.285 464.025 610.9C464.566 610.518 465.114 610.143 465.552 609.872C462.825 608.315 460.032 606.865 457.235 605.457C447.027 600.32 436.452 595.803 425.537 592.503C414.308 589.123 401.622 586.389 390.191 589.393Z" fill="url(#paint32_linear_1_310)" stroke="url(#paint33_linear_1_310)"/>
<path d="M425.979 492.089C426.166 491.886 426.135 491.592 425.909 491.433C425.684 491.274 425.349 491.31 425.162 491.513L425.979 492.089ZM425.162 491.513L404.843 513.559L405.66 514.135L425.979 492.089L425.162 491.513Z" fill="url(#paint34_linear_1_310)"/>
<path d="M484.884 535.65C485.142 535.551 485.251 535.271 485.127 535.024C485.003 534.777 484.693 534.657 484.436 534.756L484.884 535.65ZM484.436 534.756L454.602 546.22L455.051 547.113L484.884 535.65L484.436 534.756Z" fill="url(#paint35_linear_1_310)"/>
<path d="M500.329 609.754C500.605 609.752 500.827 609.526 500.824 609.25C500.821 608.974 500.595 608.752 500.319 608.754L500.329 609.754ZM500.319 608.754L469.738 608.98L469.748 609.98L500.329 609.754L500.319 608.754Z" fill="url(#paint36_linear_1_310)"/>
<path d="M300.122 549.283L300.122 549.284C299.558 553.754 300.523 558.38 303.466 562.511C307.044 567.528 312.432 571.242 318.559 573.236C325.063 575.353 332.375 575.542 339.042 573.433C351.161 569.568 355.528 558.595 357.086 548.675C358.869 537.23 357.626 525.243 355.392 513.568L355.392 513.566C354.585 509.281 353.629 505.036 352.466 500.812C352.448 500.757 352.398 500.617 352.326 500.414C352.278 500.28 352.221 500.119 352.156 499.936C351.991 499.47 351.784 498.878 351.59 498.29C351.397 497.704 351.215 497.114 351.099 496.653C351.089 496.611 351.079 496.57 351.069 496.529C348.325 498.143 345.67 499.856 343.058 501.59C333.68 507.818 324.816 514.581 317.103 522.088C309.175 529.826 301.399 538.955 300.122 549.283Z" fill="url(#paint37_linear_1_310)" stroke="url(#paint38_linear_1_310)"/>
<path d="M338.526 557.403L338.526 557.402C342.288 547.536 352.116 540.057 361.742 533.972C371.106 528.071 381.413 523.111 392.09 518.771C395.055 517.566 398.058 516.389 401.123 515.325C401.123 515.359 401.123 515.394 401.123 515.429C401.123 515.9 401.158 516.51 401.204 517.118C401.251 517.729 401.309 518.346 401.357 518.832C401.376 519.023 401.392 519.191 401.407 519.331C401.428 519.543 401.443 519.689 401.447 519.747C401.557 524.091 401.459 528.417 401.205 532.754L401.205 532.756C400.55 544.579 398.851 556.526 394.325 567.381L338.526 557.403ZM338.526 557.403C336.885 561.672 336.705 566.375 338.576 570.958M338.526 557.403L338.576 570.958M338.576 570.958C340.851 576.523 345.21 581.15 350.706 584.235M338.576 570.958L350.706 584.235M350.706 584.235C356.541 587.511 363.634 589.054 370.659 588.234M350.706 584.235L370.659 588.234M370.659 588.234C383.445 586.712 390.388 576.791 394.325 567.382L370.659 588.234Z" fill="url(#paint39_linear_1_310)" stroke="url(#paint40_linear_1_310)"/>
<path d="M227.144 508.458C230.612 510.444 233.908 512.625 236.818 515.087C239.828 517.642 242.742 520.628 243.46 524.128L243.46 524.129C243.771 525.625 243.571 527.204 242.688 528.661C241.603 530.448 239.862 531.833 237.816 532.645C235.642 533.508 233.145 533.723 230.816 533.143C226.642 532.093 224.839 528.493 224.016 525.052C223.076 521.104 223.173 516.888 223.631 512.736L223.631 512.735C223.794 511.216 224.01 509.709 224.298 508.206C224.299 508.205 224.299 508.205 224.299 508.204L224.304 508.183L224.323 508.115C224.327 508.1 224.331 508.085 224.335 508.068C224.348 508.02 224.363 507.964 224.38 507.902C224.425 507.733 224.482 507.518 224.535 507.303C224.555 507.222 224.574 507.14 224.592 507.059C225.458 507.505 226.305 507.978 227.144 508.458ZM227.144 508.458L227.395 508.054L227.144 508.458Z" fill="url(#paint41_linear_1_310)" stroke="url(#paint42_linear_1_310)"/>
<path d="M286.022 512.975L286.022 512.974C285.494 509.451 282.745 506.35 279.875 503.674C277.101 501.095 273.927 498.781 270.568 496.654C269.755 496.139 268.933 495.632 268.091 495.149C268.068 495.231 268.044 495.314 268.019 495.396C267.955 495.608 267.887 495.821 267.832 495.987C267.812 496.049 267.794 496.104 267.779 496.151C267.773 496.168 267.768 496.183 267.763 496.198L267.742 496.265L267.735 496.286C267.735 496.286 267.735 496.287 267.734 496.287C267.365 497.777 267.068 499.273 266.824 500.784L266.824 500.785C266.144 504.914 265.821 509.119 266.546 513.102L286.022 512.975ZM286.022 512.975C286.252 514.481 285.967 516.049 285.007 517.468M286.022 512.975L285.007 517.468M285.007 517.468C283.827 519.21 282.012 520.522 279.924 521.25M285.007 517.468L279.924 521.25M279.924 521.25C277.705 522.023 275.198 522.134 272.902 521.459M279.924 521.25L272.902 521.459M272.902 521.459C268.79 520.24 267.184 516.572 266.547 513.102L272.902 521.459Z" fill="url(#paint43_linear_1_310)" stroke="url(#paint44_linear_1_310)"/>
<path d="M269.749 490.112L269.749 490.113C269.831 490.655 269.73 491.22 269.381 491.735C268.941 492.385 268.261 492.879 267.472 493.153C266.634 493.445 265.693 493.485 264.841 493.234C263.374 492.799 262.762 491.487 262.509 490.112C262.225 488.553 262.35 486.893 262.622 485.241L262.622 485.24C262.719 484.64 262.837 484.047 262.983 483.458C262.984 483.453 262.987 483.445 262.991 483.432L263.018 483.35C263.235 483.48 263.451 483.614 263.666 483.751C265.008 484.6 266.269 485.52 267.367 486.541C268.521 487.617 269.552 488.802 269.749 490.112Z" fill="url(#paint45_linear_1_310)" stroke="url(#paint46_linear_1_310)"/>
<path d="M229.629 470.687C229.492 470.447 229.586 470.163 229.839 470.052C230.091 469.942 230.408 470.046 230.545 470.286L229.629 470.687ZM230.545 470.286L245.04 495.609L244.124 496.01L229.629 470.687L230.545 470.286Z" fill="url(#paint47_linear_1_310)"/>
<path d="M198.214 537.874L198.215 537.875C199.216 539.137 199.78 540.654 199.666 542.296C199.526 544.31 198.6 546.189 197.134 547.657C195.577 549.217 193.421 550.312 191.032 550.628C186.721 551.187 183.349 548.544 180.961 545.699C178.231 542.437 176.321 538.559 174.772 534.614L174.772 534.612C174.201 533.17 173.684 531.719 173.235 530.245C173.234 530.244 173.234 530.244 173.234 530.243L173.229 530.222L173.214 530.153C173.21 530.138 173.207 530.122 173.203 530.105C173.192 530.058 173.179 530.001 173.165 529.938C173.126 529.768 173.076 529.552 173.022 529.338C173.007 529.275 172.99 529.212 172.974 529.15C173.952 529.242 174.926 529.363 175.897 529.493C179.995 530.044 184.031 530.836 187.849 532.024C191.797 533.259 195.888 534.927 198.214 537.874Z" fill="url(#paint48_linear_1_310)" stroke="url(#paint49_linear_1_310)"/>
<path d="M167.49 580.323L167.491 580.323C169.132 580.91 170.554 581.921 171.479 583.35C172.612 585.101 173 587.104 172.688 589.013C172.357 591.041 171.242 592.975 169.438 594.375C166.158 596.909 161.653 596.294 157.869 595.043C153.538 593.606 149.517 591.259 145.761 588.688L145.76 588.687C144.381 587.749 143.043 586.778 141.748 585.755L141.746 585.753L141.729 585.737L141.673 585.687C141.661 585.677 141.648 585.665 141.634 585.653C141.595 585.618 141.549 585.576 141.498 585.53C141.36 585.406 141.183 585.249 141.005 585.095C140.971 585.065 140.936 585.035 140.901 585.006C141.759 584.628 142.629 584.274 143.502 583.929C147.284 582.438 151.164 581.177 155.111 580.354C159.19 579.507 163.68 578.952 167.49 580.323Z" fill="url(#paint50_linear_1_310)" stroke="url(#paint51_linear_1_310)"/>
<path d="M225.976 501.965L225.976 501.966C226.089 502.506 226.017 503.075 225.697 503.603C225.292 504.269 224.64 504.79 223.869 505.096C223.048 505.422 222.112 505.5 221.248 505.285C219.758 504.911 219.074 503.622 218.747 502.258C218.38 500.711 218.415 499.048 218.598 497.387L218.598 497.386C218.663 496.782 218.749 496.185 218.863 495.59C218.864 495.585 218.866 495.577 218.87 495.564L218.891 495.485C219.114 495.606 219.335 495.73 219.556 495.857C220.942 496.65 222.251 497.517 223.403 498.492C224.614 499.52 225.709 500.662 225.976 501.965Z" fill="url(#paint52_linear_1_310)" stroke="url(#paint53_linear_1_310)"/>
<path d="M218.005 491.444L218.005 491.443C217.909 490.973 217.503 490.53 216.976 490.082C216.509 489.687 215.977 489.331 215.408 489.001C215.385 489.149 215.366 489.298 215.35 489.448L215.35 489.449C215.271 490.166 215.258 490.861 215.409 491.496C215.547 492.073 215.807 492.485 216.279 492.603C216.587 492.68 216.931 492.654 217.239 492.532C217.527 492.417 217.766 492.224 217.912 491.983L218.005 491.444ZM218.005 491.444C218.042 491.621 218.019 491.807 217.913 491.983L218.005 491.444Z" fill="url(#paint54_linear_1_310)" stroke="url(#paint55_linear_1_310)"/>
<path d="M158.446 517.981L158.445 517.98C158.112 517.569 157.504 517.312 156.811 517.104C156.213 516.925 155.579 516.802 154.927 516.715C154.972 516.838 155.02 516.961 155.07 517.083L155.071 517.084C155.348 517.763 155.677 518.403 156.129 518.93C156.543 519.412 157.006 519.708 157.506 519.638C157.816 519.593 158.1 519.447 158.306 519.236C158.499 519.038 158.618 518.787 158.633 518.52L158.446 517.981ZM158.446 517.981C158.576 518.141 158.644 518.325 158.633 518.52L158.446 517.981Z" fill="url(#paint56_linear_1_310)" stroke="url(#paint57_linear_1_310)"/>
<path d="M122.787 581.152L122.786 581.152C122.221 580.969 121.534 581.063 120.827 581.232C120.238 581.375 119.657 581.576 119.084 581.814C119.181 581.879 119.279 581.943 119.378 582.006L119.379 582.006C120.046 582.431 120.736 582.801 121.459 583.016C122.123 583.212 122.726 583.232 123.107 582.917C123.332 582.73 123.461 582.481 123.492 582.227C123.521 581.99 123.464 581.738 123.308 581.515L122.787 581.152ZM122.787 581.152C123.012 581.225 123.192 581.35 123.308 581.515L122.787 581.152Z" fill="url(#paint58_linear_1_310)" stroke="url(#paint59_linear_1_310)"/>
<path d="M171.195 523.677L171.196 523.678C171.582 524.131 171.805 524.677 171.787 525.27C171.763 526.018 171.447 526.725 170.924 527.285C170.368 527.881 169.585 528.31 168.707 528.452C167.166 528.698 165.87 527.79 164.874 526.683C163.752 525.432 162.936 523.922 162.257 522.361L162.256 522.36C162.007 521.794 161.78 521.224 161.58 520.646C161.578 520.641 161.576 520.633 161.572 520.619L161.568 520.601C161.807 520.622 162.047 520.645 162.287 520.67C163.933 520.843 165.55 521.111 167.082 521.538C168.687 521.987 170.275 522.591 171.195 523.677Z" fill="url(#paint60_linear_1_310)" stroke="url(#paint61_linear_1_310)"/>
<path d="M137.024 581.588L137.023 581.588C135.606 581.002 133.861 581.131 132.205 581.397C130.62 581.655 129.046 582.087 127.502 582.616L137.024 581.588ZM137.024 581.588C137.623 581.834 138.118 582.229 138.421 582.758C138.802 583.423 138.899 584.164 138.745 584.855C138.581 585.591 138.132 586.282 137.439 586.767C136.201 587.63 134.541 587.359 133.056 586.791C131.384 586.149 129.845 585.151 128.403 584.057L128.402 584.056M137.024 581.588L128.402 584.056M128.402 584.056C127.879 583.661 127.375 583.256 126.888 582.831M128.402 584.056L126.888 582.831M126.888 582.831C127.091 582.758 127.296 582.686 127.501 582.616L126.888 582.831Z" fill="url(#paint62_linear_1_310)" stroke="url(#paint63_linear_1_310)"/>
<path d="M224.083 563.304L224.084 563.304C227.619 566.601 230.019 570.818 230.497 575.663C231.075 581.546 229.314 587.327 225.796 592.117C222.06 597.203 216.36 601.183 209.588 602.993C197.221 606.269 186.158 599.759 178.093 592.627C168.806 584.397 161.575 574.147 155.355 563.633L155.355 563.632C153.06 559.779 150.913 555.88 148.946 551.889C148.923 551.835 148.866 551.697 148.784 551.494C148.731 551.363 148.667 551.204 148.593 551.024C148.405 550.565 148.165 549.983 147.917 549.411C147.669 548.841 147.411 548.274 147.188 547.846C147.181 547.833 147.174 547.82 147.167 547.807C150.437 547.661 153.703 547.638 156.948 547.654C168.723 547.714 180.457 548.471 191.784 550.429C203.43 552.457 215.949 555.683 224.083 563.304Z" fill="url(#paint64_linear_1_310)" stroke="url(#paint65_linear_1_310)"/>
<path d="M209.133 590.879L209.134 590.88C214.096 592.172 218.601 594.763 221.803 598.737C225.686 603.562 227.487 609.322 227.206 614.996C226.907 621.019 224.28 626.959 219.473 631.506C210.666 639.792 197.341 639.041 186.26 636.432C173.493 633.412 161.341 627.74 149.915 621.398L149.913 621.397C145.713 619.079 141.613 616.656 137.615 614.075C137.564 614.038 137.435 613.943 137.247 613.804C137.125 613.714 136.978 613.605 136.811 613.482C136.385 613.168 135.842 612.771 135.298 612.387C134.758 612.004 134.21 611.629 133.772 611.359C136.498 609.802 139.292 608.351 142.089 606.943C152.296 601.806 162.872 597.289 173.787 593.989C185.015 590.609 197.702 587.875 209.133 590.879Z" fill="url(#paint66_linear_1_310)" stroke="url(#paint67_linear_1_310)"/>
<path d="M173.345 493.573C173.158 493.37 173.189 493.077 173.415 492.917C173.64 492.758 173.975 492.794 174.162 492.997L173.345 493.573ZM174.162 492.997L194.481 515.043L193.664 515.62L173.345 493.573L174.162 492.997Z" fill="url(#paint68_linear_1_310)"/>
<path d="M114.44 537.136C114.182 537.037 114.073 536.757 114.197 536.51C114.321 536.263 114.631 536.144 114.888 536.243L114.44 537.136ZM114.888 536.243L144.722 547.706L144.273 548.6L114.44 537.136L114.888 536.243Z" fill="url(#paint69_linear_1_310)"/>
<path d="M98.9952 611.242C98.719 611.24 98.4973 611.015 98.5 610.738C98.5027 610.462 98.7287 610.24 99.0048 610.242L98.9952 611.242ZM99.0048 610.242L129.586 610.469L129.576 611.469L98.9952 611.242L99.0048 610.242Z" fill="url(#paint70_linear_1_310)"/>
<path d="M299.201 550.77L299.201 550.771C299.766 555.24 298.801 559.866 295.857 563.998C292.28 569.015 286.892 572.728 280.765 574.723C274.26 576.84 266.948 577.028 260.281 574.919C248.162 571.055 243.795 560.081 242.237 550.161C240.454 538.716 241.697 526.729 243.931 515.054L243.932 515.053C244.738 510.767 245.694 506.523 246.857 502.299C246.876 502.243 246.925 502.104 246.998 501.9C247.045 501.767 247.103 501.606 247.168 501.423C247.333 500.956 247.539 500.364 247.733 499.776C247.926 499.19 248.109 498.6 248.224 498.139C248.234 498.098 248.245 498.056 248.254 498.016C250.999 499.629 253.654 501.342 256.265 503.076C265.643 509.304 274.507 516.067 282.221 523.575C290.149 531.312 297.925 540.441 299.201 550.77Z" fill="url(#paint71_linear_1_310)" stroke="url(#paint72_linear_1_310)"/>
<path d="M260.798 558.89L260.798 558.889C257.035 549.023 247.208 541.543 237.581 535.459C228.217 529.557 217.911 524.597 207.233 520.257C204.268 519.052 201.266 517.875 198.201 516.812C198.201 516.846 198.201 516.88 198.201 516.915C198.201 517.386 198.165 517.997 198.119 518.605C198.073 519.215 198.015 519.832 197.967 520.319C197.948 520.51 197.931 520.678 197.917 520.817C197.896 521.029 197.881 521.175 197.877 521.233C197.767 525.577 197.865 529.903 198.118 534.241L198.118 534.242C198.773 546.066 200.473 558.012 204.998 568.868L260.798 558.89ZM260.798 558.89C262.439 563.159 262.618 567.861 260.748 572.444M260.798 558.89L260.748 572.444M260.748 572.444C258.472 578.009 254.114 582.636 248.618 585.721M260.748 572.444L248.618 585.721M248.618 585.721C242.783 588.997 235.69 590.541 228.665 589.72M248.618 585.721L228.665 589.72M228.665 589.72C215.878 588.198 208.935 578.277 204.999 568.868L228.665 589.72Z" fill="url(#paint73_linear_1_310)" stroke="url(#paint74_linear_1_310)"/>
<path d="M325.823 537.796L325.822 537.798C324.572 542.153 321.826 546.193 317.419 549.169C312.065 552.781 305.531 554.62 298.989 554.62C292.043 554.62 285.111 552.564 279.701 548.551C269.887 541.235 270.168 529.629 272.66 519.861C275.549 508.594 281.49 497.741 288.237 487.48L288.238 487.479C290.702 483.709 293.289 480.022 296.062 476.418C296.102 476.372 296.204 476.256 296.352 476.088C296.45 475.978 296.568 475.844 296.702 475.692C297.043 475.305 297.473 474.813 297.889 474.321C298.303 473.831 298.71 473.333 299.001 472.937C299.031 472.896 299.06 472.856 299.088 472.816C301.022 475.17 302.831 477.59 304.591 480.017C310.898 488.714 316.51 497.755 320.747 507.143C325.094 516.814 328.74 527.736 325.823 537.796Z" fill="url(#paint75_linear_1_310)" stroke="url(#paint76_linear_1_310)"/>
</g>
</g>
<defs>
<linearGradient id="paint0_linear_1_310" x1="300" y1="-12" x2="300" y2="889" gradientUnits="userSpaceOnUse">
<stop offset="0.0182277"/>
<stop offset="0.433281" stop-color="#2A0468"/>
</linearGradient>
<linearGradient id="paint1_linear_1_310" x1="233.5" y1="43.5" x2="383" y2="173" gradientUnits="userSpaceOnUse">
<stop offset="0.137897" stop-color="#FFBE5E"/>
<stop offset="0.324454" stop-color="#FFE0AB"/>
<stop offset="0.519931" stop-color="#FFBD27"/>
<stop offset="0.794816" stop-color="#FFF6E1"/>
<stop offset="0.894747" stop-color="#FFC42C"/>
</linearGradient>
<linearGradient id="paint2_linear_1_310" x1="300" y1="108" x2="300" y2="126" gradientUnits="userSpaceOnUse">
<stop stop-color="#FFBE5E"/>
<stop offset="1" stop-color="#FFC42C"/>
</linearGradient>
<linearGradient id="paint3_linear_1_310" x1="361.264" y1="531.599" x2="372.338" y2="503.7" gradientUnits="userSpaceOnUse">
<stop stop-color="#FDFBFF"/>
<stop offset="1" stop-color="#8600FF"/>
</linearGradient>
<linearGradient id="paint4_linear_1_310" x1="361.264" y1="531.599" x2="372.338" y2="503.7" gradientUnits="userSpaceOnUse">
<stop stop-color="white" stop-opacity="0"/>
<stop offset="1" stop-color="white"/>
</linearGradient>
<linearGradient id="paint5_linear_1_310" x1="319.178" y1="520.213" x2="329.011" y2="491.984" gradientUnits="userSpaceOnUse">
<stop stop-color="#FDFBFF"/>
<stop offset="1" stop-color="#8600FF"/>
</linearGradient>
<linearGradient id="paint6_linear_1_310" x1="319.178" y1="520.213" x2="329.011" y2="491.984" gradientUnits="userSpaceOnUse">
<stop stop-color="white" stop-opacity="0"/>
<stop offset="1" stop-color="white"/>
</linearGradient>
<linearGradient id="paint7_linear_1_310" x1="331.638" y1="492.122" x2="335.6" y2="480.747" gradientUnits="userSpaceOnUse">
<stop stop-color="#FDFBFF"/>
<stop offset="1" stop-color="#8600FF"/>
</linearGradient>
<linearGradient id="paint8_linear_1_310" x1="331.638" y1="492.122" x2="335.6" y2="480.747" gradientUnits="userSpaceOnUse">
<stop stop-color="white" stop-opacity="0"/>
<stop offset="1" stop-color="white"/>
</linearGradient>
<linearGradient id="paint9_linear_1_310" x1="337.589" y1="479.301" x2="339.324" y2="474.319" gradientUnits="userSpaceOnUse">
<stop stop-color="#FDFBFF"/>
<stop offset="1" stop-color="#8600FF"/>
</linearGradient>
<linearGradient id="paint10_linear_1_310" x1="337.589" y1="479.301" x2="339.324" y2="474.319" gradientUnits="userSpaceOnUse">
<stop stop-color="white" stop-opacity="0"/>
<stop offset="1" stop-color="white"/>
</linearGradient>
<linearGradient id="paint11_linear_1_310" x1="261.484" y1="479.301" x2="259.749" y2="474.319" gradientUnits="userSpaceOnUse">
<stop stop-color="#FDFBFF"/>
<stop offset="1" stop-color="#8600FF"/>
</linearGradient>
<linearGradient id="paint12_linear_1_310" x1="261.484" y1="479.301" x2="259.749" y2="474.319" gradientUnits="userSpaceOnUse">
<stop stop-color="white" stop-opacity="0"/>
<stop offset="1" stop-color="white"/>
</linearGradient>
<linearGradient id="paint13_linear_1_310" x1="359.161" y1="464.586" x2="347.519" y2="491.158" gradientUnits="userSpaceOnUse">
<stop stop-color="#921AFF"/>
<stop offset="1" stop-color="white"/>
</linearGradient>
<linearGradient id="paint14_linear_1_310" x1="401.782" y1="546.464" x2="424.136" y2="524.149" gradientUnits="userSpaceOnUse">
<stop stop-color="#FDFBFF"/>
<stop offset="1" stop-color="#8600FF"/>
</linearGradient>
<linearGradient id="paint15_linear_1_310" x1="401.782" y1="546.464" x2="424.136" y2="524.149" gradientUnits="userSpaceOnUse">
<stop stop-color="white" stop-opacity="0"/>
<stop offset="1" stop-color="white"/>
</linearGradient>
<linearGradient id="paint16_linear_1_310" x1="426.137" y1="587.575" x2="459.212" y2="582.176" gradientUnits="userSpaceOnUse">
<stop stop-color="#FDFBFF"/>
<stop offset="1" stop-color="#8600FF"/>
</linearGradient>
<linearGradient id="paint17_linear_1_310" x1="426.137" y1="587.575" x2="459.212" y2="582.176" gradientUnits="userSpaceOnUse">
<stop stop-color="white" stop-opacity="0"/>
<stop offset="1" stop-color="white"/>
</linearGradient>
<linearGradient id="paint18_linear_1_310" x1="375.219" y1="504.052" x2="379.682" y2="492.81" gradientUnits="userSpaceOnUse">
<stop stop-color="#FDFBFF"/>
<stop offset="1" stop-color="#8600FF"/>
</linearGradient>
<linearGradient id="paint19_linear_1_310" x1="375.219" y1="504.052" x2="379.682" y2="492.81" gradientUnits="userSpaceOnUse">
<stop stop-color="white" stop-opacity="0"/>
<stop offset="1" stop-color="white"/>
</linearGradient>
<linearGradient id="paint20_linear_1_310" x1="381.853" y1="491.49" x2="383.807" y2="486.566" gradientUnits="userSpaceOnUse">
<stop stop-color="#FDFBFF"/>
<stop offset="1" stop-color="#8600FF"/>
</linearGradient>
<linearGradient id="paint21_linear_1_310" x1="381.853" y1="491.49" x2="383.807" y2="486.566" gradientUnits="userSpaceOnUse">
<stop stop-color="white" stop-opacity="0"/>
<stop offset="1" stop-color="white"/>
</linearGradient>
<linearGradient id="paint22_linear_1_310" x1="440.615" y1="518.046" x2="444.614" y2="514.149" gradientUnits="userSpaceOnUse">
<stop stop-color="#FDFBFF"/>
<stop offset="1" stop-color="#8600FF"/>
</linearGradient>
<linearGradient id="paint23_linear_1_310" x1="440.615" y1="518.046" x2="444.614" y2="514.149" gradientUnits="userSpaceOnUse">
<stop stop-color="white" stop-opacity="0"/>
<stop offset="1" stop-color="white"/>
</linearGradient>
<linearGradient id="paint24_linear_1_310" x1="475.334" y1="580.787" x2="481.212" y2="580.067" gradientUnits="userSpaceOnUse">
<stop stop-color="#FDFBFF"/>
<stop offset="1" stop-color="#8600FF"/>
</linearGradient>
<linearGradient id="paint25_linear_1_310" x1="475.334" y1="580.787" x2="481.212" y2="580.067" gradientUnits="userSpaceOnUse">
<stop stop-color="white" stop-opacity="0"/>
<stop offset="1" stop-color="white"/>
</linearGradient>
<linearGradient id="paint26_linear_1_310" x1="427.988" y1="526.085" x2="437.337" y2="517.365" gradientUnits="userSpaceOnUse">
<stop stop-color="#FDFBFF"/>
<stop offset="1" stop-color="#8600FF"/>
</linearGradient>
<linearGradient id="paint27_linear_1_310" x1="427.988" y1="526.085" x2="437.337" y2="517.365" gradientUnits="userSpaceOnUse">
<stop stop-color="white" stop-opacity="0"/>
<stop offset="1" stop-color="white"/>
</linearGradient>
<linearGradient id="paint28_linear_1_310" x1="460.084" y1="583.447" x2="473.231" y2="580.516" gradientUnits="userSpaceOnUse">
<stop stop-color="#FDFBFF"/>
<stop offset="1" stop-color="#8600FF"/>
</linearGradient>
<linearGradient id="paint29_linear_1_310" x1="460.084" y1="583.447" x2="473.231" y2="580.516" gradientUnits="userSpaceOnUse">
<stop stop-color="white" stop-opacity="0"/>
<stop offset="1" stop-color="white"/>
</linearGradient>
<linearGradient id="paint30_linear_1_310" x1="373.068" y1="590.844" x2="446.504" y2="536.908" gradientUnits="userSpaceOnUse">
<stop stop-color="#FDFBFF"/>
<stop offset="1" stop-color="#8600FF"/>
</linearGradient>
<linearGradient id="paint31_linear_1_310" x1="373.068" y1="590.844" x2="446.504" y2="536.908" gradientUnits="userSpaceOnUse">
<stop stop-color="white" stop-opacity="0"/>
<stop offset="1" stop-color="white"/>
</linearGradient>
<linearGradient id="paint32_linear_1_310" x1="371.616" y1="613.489" x2="466.579" y2="608.783" gradientUnits="userSpaceOnUse">
<stop stop-color="#FDFBFF"/>
<stop offset="1" stop-color="#8600FF"/>
</linearGradient>
<linearGradient id="paint33_linear_1_310" x1="371.616" y1="613.489" x2="466.579" y2="608.783" gradientUnits="userSpaceOnUse">
<stop stop-color="white" stop-opacity="0"/>
<stop offset="1" stop-color="white"/>
</linearGradient>
<linearGradient id="paint34_linear_1_310" x1="416.582" y1="485.46" x2="399.445" y2="509.751" gradientUnits="userSpaceOnUse">
<stop stop-color="#921AFF"/>
<stop offset="1" stop-color="white"/>
</linearGradient>
<linearGradient id="paint35_linear_1_310" x1="479.725" y1="525.372" x2="451.3" y2="539.642" gradientUnits="userSpaceOnUse">
<stop stop-color="#921AFF"/>
<stop offset="1" stop-color="white"/>
</linearGradient>
<linearGradient id="paint36_linear_1_310" x1="500.218" y1="598.254" x2="469.637" y2="598.55" gradientUnits="userSpaceOnUse">
<stop stop-color="#921AFF"/>
<stop offset="1" stop-color="white"/>
</linearGradient>
<linearGradient id="paint37_linear_1_310" x1="318.322" y1="573.683" x2="344.449" y2="493.408" gradientUnits="userSpaceOnUse">
<stop stop-color="#FDFBFF"/>
<stop offset="1" stop-color="#8600FF"/>
</linearGradient>
<linearGradient id="paint38_linear_1_310" x1="318.322" y1="573.683" x2="344.449" y2="493.408" gradientUnits="userSpaceOnUse">
<stop stop-color="white" stop-opacity="0"/>
<stop offset="1" stop-color="white"/>
</linearGradient>
<linearGradient id="paint39_linear_1_310" x1="350.373" y1="584.617" x2="392.572" y2="509.443" gradientUnits="userSpaceOnUse">
<stop stop-color="#FDFBFF"/>
<stop offset="1" stop-color="#8600FF"/>
</linearGradient>
<linearGradient id="paint40_linear_1_310" x1="350.373" y1="584.617" x2="392.572" y2="509.443" gradientUnits="userSpaceOnUse">
<stop stop-color="white" stop-opacity="0"/>
<stop offset="1" stop-color="white"/>
</linearGradient>
<linearGradient id="paint41_linear_1_310" x1="238.06" y1="533.083" x2="226.986" y2="505.184" gradientUnits="userSpaceOnUse">
<stop stop-color="#FDFBFF"/>
<stop offset="1" stop-color="#8600FF"/>
</linearGradient>
<linearGradient id="paint42_linear_1_310" x1="238.06" y1="533.083" x2="226.986" y2="505.184" gradientUnits="userSpaceOnUse">
<stop stop-color="white" stop-opacity="0"/>
<stop offset="1" stop-color="white"/>
</linearGradient>
<linearGradient id="paint43_linear_1_310" x1="280.145" y1="521.7" x2="270.313" y2="493.47" gradientUnits="userSpaceOnUse">
<stop stop-color="#FDFBFF"/>
<stop offset="1" stop-color="#8600FF"/>
</linearGradient>
<linearGradient id="paint44_linear_1_310" x1="280.145" y1="521.7" x2="270.313" y2="493.47" gradientUnits="userSpaceOnUse">
<stop stop-color="white" stop-opacity="0"/>
<stop offset="1" stop-color="white"/>
</linearGradient>
<linearGradient id="paint45_linear_1_310" x1="267.685" y1="493.606" x2="263.723" y2="482.231" gradientUnits="userSpaceOnUse">
<stop stop-color="#FDFBFF"/>
<stop offset="1" stop-color="#8600FF"/>
</linearGradient>
<linearGradient id="paint46_linear_1_310" x1="267.685" y1="493.606" x2="263.723" y2="482.231" gradientUnits="userSpaceOnUse">
<stop stop-color="white" stop-opacity="0"/>
<stop offset="1" stop-color="white"/>
</linearGradient>
<linearGradient id="paint47_linear_1_310" x1="240.162" y1="466.072" x2="251.805" y2="492.645" gradientUnits="userSpaceOnUse">
<stop stop-color="#921AFF"/>
<stop offset="1" stop-color="white"/>
</linearGradient>
<linearGradient id="paint48_linear_1_310" x1="197.542" y1="547.951" x2="175.188" y2="525.635" gradientUnits="userSpaceOnUse">
<stop stop-color="#FDFBFF"/>
<stop offset="1" stop-color="#8600FF"/>
</linearGradient>
<linearGradient id="paint49_linear_1_310" x1="197.542" y1="547.951" x2="175.188" y2="525.635" gradientUnits="userSpaceOnUse">
<stop stop-color="white" stop-opacity="0"/>
<stop offset="1" stop-color="white"/>
</linearGradient>
<linearGradient id="paint50_linear_1_310" x1="173.186" y1="589.061" x2="140.112" y2="583.662" gradientUnits="userSpaceOnUse">
<stop stop-color="#FDFBFF"/>
<stop offset="1" stop-color="#8600FF"/>
</linearGradient>
<linearGradient id="paint51_linear_1_310" x1="173.186" y1="589.061" x2="140.112" y2="583.662" gradientUnits="userSpaceOnUse">
<stop stop-color="white" stop-opacity="0"/>
<stop offset="1" stop-color="white"/>
</linearGradient>
<linearGradient id="paint52_linear_1_310" x1="224.104" y1="505.538" x2="219.642" y2="494.296" gradientUnits="userSpaceOnUse">
<stop stop-color="#FDFBFF"/>
<stop offset="1" stop-color="#8600FF"/>
</linearGradient>
<linearGradient id="paint53_linear_1_310" x1="224.104" y1="505.538" x2="219.642" y2="494.296" gradientUnits="userSpaceOnUse">
<stop stop-color="white" stop-opacity="0"/>
<stop offset="1" stop-color="white"/>
</linearGradient>
<linearGradient id="paint54_linear_1_310" x1="217.471" y1="492.975" x2="215.517" y2="488.051" gradientUnits="userSpaceOnUse">
<stop stop-color="#FDFBFF"/>
<stop offset="1" stop-color="#8600FF"/>
</linearGradient>
<linearGradient id="paint55_linear_1_310" x1="217.471" y1="492.975" x2="215.517" y2="488.051" gradientUnits="userSpaceOnUse">
<stop stop-color="white" stop-opacity="0"/>
<stop offset="1" stop-color="white"/>
</linearGradient>
<linearGradient id="paint56_linear_1_310" x1="158.709" y1="519.533" x2="154.71" y2="515.636" gradientUnits="userSpaceOnUse">
<stop stop-color="#FDFBFF"/>
<stop offset="1" stop-color="#8600FF"/>
</linearGradient>
<linearGradient id="paint57_linear_1_310" x1="158.709" y1="519.533" x2="154.71" y2="515.636" gradientUnits="userSpaceOnUse">
<stop stop-color="white" stop-opacity="0"/>
<stop offset="1" stop-color="white"/>
</linearGradient>
<linearGradient id="paint58_linear_1_310" x1="123.99" y1="582.272" x2="118.112" y2="581.551" gradientUnits="userSpaceOnUse">
<stop stop-color="#FDFBFF"/>
<stop offset="1" stop-color="#8600FF"/>
</linearGradient>
<linearGradient id="paint59_linear_1_310" x1="123.99" y1="582.272" x2="118.112" y2="581.551" gradientUnits="userSpaceOnUse">
<stop stop-color="white" stop-opacity="0"/>
<stop offset="1" stop-color="white"/>
</linearGradient>
<linearGradient id="paint60_linear_1_310" x1="171.335" y1="527.571" x2="161.986" y2="518.851" gradientUnits="userSpaceOnUse">
<stop stop-color="#FDFBFF"/>
<stop offset="1" stop-color="#8600FF"/>
</linearGradient>
<linearGradient id="paint61_linear_1_310" x1="171.335" y1="527.571" x2="161.986" y2="518.851" gradientUnits="userSpaceOnUse">
<stop stop-color="white" stop-opacity="0"/>
<stop offset="1" stop-color="white"/>
</linearGradient>
<linearGradient id="paint62_linear_1_310" x1="139.239" y1="584.934" x2="126.092" y2="582.003" gradientUnits="userSpaceOnUse">
<stop stop-color="#FDFBFF"/>
<stop offset="1" stop-color="#8600FF"/>
</linearGradient>
<linearGradient id="paint63_linear_1_310" x1="139.239" y1="584.934" x2="126.092" y2="582.003" gradientUnits="userSpaceOnUse">
<stop stop-color="white" stop-opacity="0"/>
<stop offset="1" stop-color="white"/>
</linearGradient>
<linearGradient id="paint64_linear_1_310" x1="226.255" y1="592.33" x2="152.82" y2="538.395" gradientUnits="userSpaceOnUse">
<stop stop-color="#FDFBFF"/>
<stop offset="1" stop-color="#8600FF"/>
</linearGradient>
<linearGradient id="paint65_linear_1_310" x1="226.255" y1="592.33" x2="152.82" y2="538.395" gradientUnits="userSpaceOnUse">
<stop stop-color="white" stop-opacity="0"/>
<stop offset="1" stop-color="white"/>
</linearGradient>
<linearGradient id="paint66_linear_1_310" x1="227.707" y1="614.976" x2="132.744" y2="610.269" gradientUnits="userSpaceOnUse">
<stop stop-color="#FDFBFF"/>
<stop offset="1" stop-color="#8600FF"/>
</linearGradient>
<linearGradient id="paint67_linear_1_310" x1="227.707" y1="614.976" x2="132.744" y2="610.269" gradientUnits="userSpaceOnUse">
<stop stop-color="white" stop-opacity="0"/>
<stop offset="1" stop-color="white"/>
</linearGradient>
<linearGradient id="paint68_linear_1_310" x1="182.742" y1="486.944" x2="199.879" y2="511.236" gradientUnits="userSpaceOnUse">
<stop stop-color="#921AFF"/>
<stop offset="1" stop-color="white"/>
</linearGradient>
<linearGradient id="paint69_linear_1_310" x1="119.599" y1="526.859" x2="148.024" y2="541.128" gradientUnits="userSpaceOnUse">
<stop stop-color="#921AFF"/>
<stop offset="1" stop-color="white"/>
</linearGradient>
<linearGradient id="paint70_linear_1_310" x1="99.1064" y1="599.743" x2="129.687" y2="600.039" gradientUnits="userSpaceOnUse">
<stop stop-color="#921AFF"/>
<stop offset="1" stop-color="white"/>
</linearGradient>
<linearGradient id="paint71_linear_1_310" x1="281.002" y1="575.169" x2="254.874" y2="494.894" gradientUnits="userSpaceOnUse">
<stop stop-color="#FDFBFF"/>
<stop offset="1" stop-color="#8600FF"/>
</linearGradient>
<linearGradient id="paint72_linear_1_310" x1="281.002" y1="575.169" x2="254.874" y2="494.894" gradientUnits="userSpaceOnUse">
<stop stop-color="white" stop-opacity="0"/>
<stop offset="1" stop-color="white"/>
</linearGradient>
<linearGradient id="paint73_linear_1_310" x1="248.951" y1="586.104" x2="206.752" y2="510.93" gradientUnits="userSpaceOnUse">
<stop stop-color="#FDFBFF"/>
<stop offset="1" stop-color="#8600FF"/>
</linearGradient>
<linearGradient id="paint74_linear_1_310" x1="248.951" y1="586.104" x2="206.752" y2="510.93" gradientUnits="userSpaceOnUse">
<stop stop-color="white" stop-opacity="0"/>
<stop offset="1" stop-color="white"/>
</linearGradient>
<linearGradient id="paint75_linear_1_310" x1="299.033" y1="555.12" x2="299.033" y2="471.912" gradientUnits="userSpaceOnUse">
<stop stop-color="#FDFBFF"/>
<stop offset="1" stop-color="#8600FF"/>
</linearGradient>
<linearGradient id="paint76_linear_1_310" x1="299.033" y1="555.12" x2="299.033" y2="471.912" gradientUnits="userSpaceOnUse">
<stop stop-color="white" stop-opacity="0"/>
<stop offset="1" stop-color="white"/>
</linearGradient>
<clipPath id="clip0_1_310">
<rect width="600" height="800" fill="white"/>
</clipPath>
</defs>
</svg>
